<svg xmlns="http://www.w3.org/2000/svg" width="1194" height="266" viewBox="0 0 1194 266"><defs><clipPath id="zpx1a"><path fill="#fff" d="M1159 .999h19.5c14.333 0 14.5 4.834 14.5 20v114c0 20-2.5 20-20.5 20H27c-18.667 0-19 .112-19 21.667v80.333"/></clipPath><clipPath id="zpx1b"><path fill="#fff" d="M15.999 258L8.003 266 .007 258z"/></clipPath></defs><g><g><path fill="none" stroke="#f58345" stroke-dasharray="4 2" stroke-miterlimit="50" stroke-width="2" d="M1159 .999v0h19.5c14.333 0 14.5 4.834 14.5 20v114c0 20-2.5 20-20.5 20H27c-18.667 0-19 .112-19 21.667v80.333" clip-path="url(&quot;#zpx1a&quot;)"/></g><g><path fill="none" stroke="#f58345" stroke-dasharray="4 2" stroke-miterlimit="50" stroke-width="2" d="M15.999 258v0L8.003 266v0L.007 258v0z" clip-path="url(&quot;#zpx1b&quot;)"/></g></g></svg>